<svg width="383" height="225" viewBox="0 0 383 225" fill="none" xmlns="http://www.w3.org/2000/svg">
<rect width="383" height="225" rx="20" fill="#D9D9D9" fill-opacity="0.41"/>
<g clip-path="url(#clip0_1402_856)">
<path d="M206.75 89.625H176.25C174.228 89.625 172.288 90.4283 170.858 91.8583C169.428 93.2883 168.625 95.2277 168.625 97.25V127.75C168.625 129.772 169.428 131.712 170.858 133.142C172.288 134.572 174.228 135.375 176.25 135.375H206.75C208.772 135.375 210.712 134.572 212.142 133.142C213.572 131.712 214.375 129.772 214.375 127.75V97.25C214.375 95.2277 213.572 93.2883 212.142 91.8583C210.712 90.4283 208.772 89.625 206.75 89.625ZM176.25 94.7083H206.75C207.424 94.7083 208.071 94.9761 208.547 95.4528C209.024 95.9294 209.292 96.5759 209.292 97.25V118.498L201.158 111.56C199.898 110.523 198.317 109.956 196.685 109.956C195.053 109.956 193.472 110.523 192.212 111.56L173.708 126.988V97.25C173.708 96.5759 173.976 95.9294 174.453 95.4528C174.929 94.9761 175.576 94.7083 176.25 94.7083Z" fill="white"/>
<path d="M181.334 107.417C183.44 107.417 185.146 105.71 185.146 103.604C185.146 101.499 183.44 99.792 181.334 99.792C179.228 99.792 177.521 101.499 177.521 103.604C177.521 105.71 179.228 107.417 181.334 107.417Z" fill="white"/>
</g>
<defs>
<clipPath id="clip0_1402_856">
<rect width="61" height="61" fill="white" transform="translate(161 82)"/>
</clipPath>
</defs>
</svg>
