<svg width="407" height="250" viewBox="0 0 407 250" fill="none" xmlns="http://www.w3.org/2000/svg">
<path fill-rule="evenodd" clip-rule="evenodd" d="M327.435 233.14C375.113 217.099 411.212 171.822 406.041 106.366C398.183 6.9149 302.317 -17.755 242.597 11.5413C161.583 51.2822 151.323 57.7954 93.2971 57.7954C50.0784 57.7954 6.07397 78.6115 0.574146 134.89C-3.41272 175.682 12.6253 211.288 71.9726 229.469C179.986 262.556 281.363 248.64 327.435 233.138V233.14Z" fill="#3855B3" fill-opacity="0.3"/>
<g filter="url(#filter0_i_1351_985)">
<path fill-rule="evenodd" clip-rule="evenodd" d="M66.4533 191.814H66.4679C75.6114 191.814 83.0229 184.128 83.0229 174.646C83.0229 165.163 75.6114 157.478 66.4679 157.478C59.0477 157.478 52.768 162.539 50.6636 169.514C49.5348 169.121 48.348 168.921 47.1529 168.922C41.0572 168.922 36.1152 174.048 36.1152 180.369C36.1152 186.689 41.0572 191.814 47.1529 191.814H66.4533Z" fill="#DADADA"/>
</g>
<g filter="url(#filter1_i_1351_985)">
<path fill-rule="evenodd" clip-rule="evenodd" d="M378.643 83.4674C383.76 83.4674 387.908 79.3667 387.908 74.3109C387.908 69.2537 383.76 65.1545 378.643 65.1545C376.955 65.1545 375.372 65.5999 374.009 66.3797V66.2979C374.009 56.8172 366.231 49.1299 356.637 49.1299C348.911 49.1299 342.361 54.1141 340.105 61.0056C339.076 60.7192 338.014 60.5748 336.946 60.5762C330.55 60.5762 325.365 65.7006 325.365 72.0211C325.365 78.343 330.55 83.4674 336.946 83.4674H378.643Z" fill="#E4E3E3"/>
</g>
<g filter="url(#filter2_d_1351_985)">
<path d="M211.843 135.799C211.843 137.093 211.33 138.334 210.415 139.248C209.501 140.163 208.26 140.676 206.966 140.676H143.865C142.122 140.676 140.512 139.747 139.642 138.239C138.77 136.729 138.77 134.869 139.642 133.361C140.512 131.852 142.123 130.922 143.865 130.922H206.966C208.26 130.923 209.499 131.436 210.415 132.352C211.33 133.265 211.843 134.506 211.843 135.799ZM206.965 154.299H201.937C200.195 154.299 198.584 155.23 197.714 156.738C196.842 158.247 196.842 160.107 197.714 161.615C198.585 163.125 200.195 164.054 201.937 164.054H206.967C208.709 164.054 210.319 163.125 211.19 161.615C212.062 160.106 212.062 158.247 211.19 156.738C210.319 155.23 208.709 154.299 206.967 154.299H206.965ZM189.669 154.299H143.857C142.115 154.299 140.504 155.23 139.634 156.738C138.762 158.247 138.762 160.107 139.634 161.615C140.505 163.125 142.115 164.054 143.857 164.054H189.662C191.405 164.054 193.015 163.125 193.887 161.615C194.757 160.106 194.757 158.247 193.887 156.738C193.015 155.23 191.405 154.299 189.662 154.299H189.669ZM297.453 105.97V118.539C297.443 127.506 294 136.128 287.832 142.636C281.662 149.143 273.237 153.041 264.283 153.53C259.297 160.161 251.548 164.141 243.254 164.332H243.094C241.883 164.332 240.715 163.881 239.817 163.066C238.92 162.253 238.358 161.133 238.24 159.928C238.123 158.722 238.459 157.516 239.182 156.544C239.853 155.638 240.388 154.639 240.768 153.576H231.753V154.92C231.743 164.209 228.048 173.116 221.48 179.684C214.911 186.254 206.005 189.95 196.714 189.96H175.769C176.149 191.021 176.683 192.02 177.355 192.925C178.078 193.897 178.414 195.103 178.297 196.309C178.178 197.516 177.617 198.634 176.719 199.449C175.822 200.262 174.654 200.713 173.443 200.713H173.283C164.989 200.523 157.238 196.541 152.253 189.908C143.301 189.418 134.874 185.52 128.706 179.013C122.537 172.507 119.094 163.885 119.084 154.919V142.343C119.097 133.054 122.792 124.149 129.361 117.582C135.929 111.014 144.835 107.321 154.123 107.309H184.793V105.967C184.804 96.6775 188.499 87.7719 195.067 81.2038C201.637 74.6353 210.542 70.9408 219.832 70.9307H262.409C271.7 70.9396 280.607 74.6343 287.176 81.2038C293.746 87.7723 297.442 96.6788 297.452 105.97L297.453 105.97ZM221.991 142.342C221.986 133.784 217.652 125.81 210.473 121.15C210.331 121.07 210.192 120.981 210.059 120.886C206.057 118.378 201.429 117.048 196.706 117.05H154.129C147.423 117.058 140.995 119.726 136.254 124.466C131.513 129.208 128.847 135.637 128.841 142.342V154.912C128.847 161.616 131.513 168.045 136.253 172.787C140.993 177.528 147.421 180.196 154.125 180.204H154.893C156.62 180.204 158.219 181.118 159.096 182.608C160.631 185.209 162.845 187.346 165.5 188.787C165.325 187.489 165.265 186.178 165.322 184.869C165.377 183.613 165.915 182.427 166.822 181.558C167.731 180.688 168.938 180.204 170.195 180.204H196.707C203.41 180.195 209.837 177.529 214.577 172.788C219.316 168.049 221.983 161.622 221.992 154.918L221.991 142.342ZM287.698 105.963C287.688 99.2612 285.02 92.8365 280.281 88.0973C275.542 83.3593 269.116 80.6939 262.414 80.6851H219.836C213.132 80.6927 206.706 83.3592 201.965 88.0986C197.225 92.8378 194.557 99.2651 194.548 105.97V107.312H196.706C197.788 107.312 198.858 107.364 199.917 107.462C206.119 107.309 205.574 107.832 209.21 107.462C211.843 108.185 213.44 109.161 214.416 110.137C216.676 113.01 216.175 112.91 219.531 115.787C227.284 122.431 231.747 132.132 231.745 142.343V143.818H246.341C247.598 143.818 248.806 144.303 249.714 145.172C250.623 146.042 251.159 147.229 251.214 148.485C251.271 149.792 251.211 151.103 251.036 152.4C253.691 150.96 255.903 148.825 257.438 146.224C258.313 144.733 259.913 143.818 261.642 143.818H262.41C269.113 143.811 275.539 141.146 280.279 136.407C285.021 131.669 287.689 125.243 287.699 118.54L287.698 105.963ZM251.804 112.254C251.804 115.087 250.679 117.805 248.676 119.808C246.672 121.812 243.954 122.937 241.121 122.937C238.288 122.937 235.571 121.812 233.568 119.808C231.564 117.805 230.439 115.087 230.439 112.254C230.439 109.421 231.564 106.704 233.568 104.7C235.571 102.697 238.288 101.571 241.121 101.571C243.953 101.574 246.669 102.702 248.672 104.704C250.674 106.707 251.801 109.421 251.804 112.254ZM242.049 112.254C242.049 111.878 241.825 111.54 241.478 111.396C241.131 111.253 240.731 111.332 240.466 111.597C240.2 111.863 240.12 112.262 240.264 112.609C240.407 112.956 240.747 113.182 241.122 113.182C241.631 113.175 242.043 112.764 242.049 112.254ZM272.788 101.571C275.621 101.571 278.338 102.697 280.341 104.7C282.344 106.704 283.47 109.422 283.47 112.254C283.47 115.087 282.344 117.805 280.341 119.808C278.338 121.812 275.621 122.937 272.788 122.937C269.954 122.937 267.236 121.812 265.233 119.808C263.23 117.805 262.104 115.087 262.104 112.254C262.108 109.422 263.234 106.707 265.237 104.704C267.239 102.701 269.955 101.575 272.788 101.571ZM272.788 111.325C272.412 111.325 272.073 111.551 271.93 111.898C271.786 112.245 271.865 112.644 272.131 112.91C272.396 113.176 272.795 113.256 273.142 113.112C273.489 112.967 273.716 112.629 273.716 112.254C273.708 111.745 273.297 111.333 272.788 111.325Z" fill="white"/>
</g>
<defs>
<filter id="filter0_i_1351_985" x="36.1152" y="157.478" width="46.9082" height="38.3359" filterUnits="userSpaceOnUse" color-interpolation-filters="sRGB">
<feFlood flood-opacity="0" result="BackgroundImageFix"/>
<feBlend mode="normal" in="SourceGraphic" in2="BackgroundImageFix" result="shape"/>
<feColorMatrix in="SourceAlpha" type="matrix" values="0 0 0 0 0 0 0 0 0 0 0 0 0 0 0 0 0 0 127 0" result="hardAlpha"/>
<feOffset dy="4"/>
<feGaussianBlur stdDeviation="2"/>
<feComposite in2="hardAlpha" operator="arithmetic" k2="-1" k3="1"/>
<feColorMatrix type="matrix" values="0 0 0 0 0 0 0 0 0 0 0 0 0 0 0 0 0 0 0.25 0"/>
<feBlend mode="normal" in2="shape" result="effect1_innerShadow_1351_985"/>
</filter>
<filter id="filter1_i_1351_985" x="325.365" y="49.1299" width="62.543" height="38.3379" filterUnits="userSpaceOnUse" color-interpolation-filters="sRGB">
<feFlood flood-opacity="0" result="BackgroundImageFix"/>
<feBlend mode="normal" in="SourceGraphic" in2="BackgroundImageFix" result="shape"/>
<feColorMatrix in="SourceAlpha" type="matrix" values="0 0 0 0 0 0 0 0 0 0 0 0 0 0 0 0 0 0 127 0" result="hardAlpha"/>
<feOffset dy="4"/>
<feGaussianBlur stdDeviation="2"/>
<feComposite in2="hardAlpha" operator="arithmetic" k2="-1" k3="1"/>
<feColorMatrix type="matrix" values="0 0 0 0 0 0 0 0 0 0 0 0 0 0 0 0 0 0 0.25 0"/>
<feBlend mode="normal" in2="shape" result="effect1_innerShadow_1351_985"/>
</filter>
<filter id="filter2_d_1351_985" x="115.084" y="70.9307" width="186.369" height="137.782" filterUnits="userSpaceOnUse" color-interpolation-filters="sRGB">
<feFlood flood-opacity="0" result="BackgroundImageFix"/>
<feColorMatrix in="SourceAlpha" type="matrix" values="0 0 0 0 0 0 0 0 0 0 0 0 0 0 0 0 0 0 127 0" result="hardAlpha"/>
<feOffset dy="4"/>
<feGaussianBlur stdDeviation="2"/>
<feComposite in2="hardAlpha" operator="out"/>
<feColorMatrix type="matrix" values="0 0 0 0 0 0 0 0 0 0 0 0 0 0 0 0 0 0 0.25 0"/>
<feBlend mode="normal" in2="BackgroundImageFix" result="effect1_dropShadow_1351_985"/>
<feBlend mode="normal" in="SourceGraphic" in2="effect1_dropShadow_1351_985" result="shape"/>
</filter>
</defs>
</svg>
