<svg width="36" height="36" viewBox="0 0 36 36" fill="none" xmlns="http://www.w3.org/2000/svg">
<g clip-path="url(#clip0_1343_931)">
<path d="M13.9343 31.4997C12.6951 31.4938 11.4693 31.2414 10.3285 30.7573C9.18774 30.2731 8.15462 29.5669 7.28932 28.6797C6.43052 27.8658 5.74065 26.8905 5.25919 25.8096C4.77774 24.7287 4.51414 23.5635 4.48349 22.3807C4.45284 21.1978 4.65573 20.0205 5.08057 18.9162C5.5054 17.8118 6.14383 16.8021 6.95932 15.9447L17.9993 4.79974C18.5889 4.21126 19.2916 3.74836 20.065 3.43899C20.8384 3.12962 21.6665 2.9802 22.4993 2.99974C23.3914 3.00278 24.2739 3.1834 25.0955 3.53107C25.917 3.87874 26.6611 4.38651 27.2843 5.02474C28.5248 6.2191 29.2442 7.85452 29.2863 9.57601C29.3284 11.2975 28.6899 12.9661 27.5093 14.2197L16.4093 25.3647C16.0538 25.7227 15.6307 26.0064 15.1647 26.1996C14.6986 26.3927 14.1988 26.4913 13.6943 26.4897C13.1493 26.4905 12.6097 26.382 12.1074 26.1707C11.605 25.9595 11.15 25.6497 10.7693 25.2597C10.0084 24.523 9.56898 23.5158 9.54651 22.4569C9.52404 21.398 9.92035 20.3731 10.6493 19.6047L20.8943 9.31474C21.1859 9.1211 21.536 9.03552 21.884 9.07282C22.2321 9.11012 22.5561 9.26795 22.8 9.51899C23.0439 9.77002 23.1924 10.0985 23.2196 10.4474C23.2469 10.7964 23.1513 11.1439 22.9493 11.4297L12.7043 21.7197C12.5335 21.9256 12.4503 22.1903 12.4728 22.4568C12.4952 22.7233 12.6215 22.9704 12.8243 23.1447C13.0354 23.3573 13.3199 23.4807 13.6193 23.4897C13.7302 23.4913 13.8403 23.4709 13.9433 23.4298C14.0463 23.3886 14.1401 23.3274 14.2193 23.2497L25.3043 12.1047C25.9265 11.4135 26.2517 10.5052 26.2096 9.57612C26.1675 8.64705 25.7615 7.77186 25.0793 7.13975C24.4457 6.4819 23.584 6.09194 22.6716 6.05008C21.7592 6.00823 20.8655 6.31768 20.1743 6.91475L9.08932 17.9997C8.55029 18.5787 8.13106 19.2585 7.85576 20.0001C7.58046 20.7417 7.45453 21.5304 7.4852 22.3209C7.51587 23.1113 7.70254 23.8879 8.03447 24.606C8.36641 25.324 8.83705 25.9693 9.41932 26.5047C10.0032 27.1101 10.7019 27.5929 11.4746 27.9252C12.2472 28.2574 13.0783 28.4323 13.9193 28.4397C14.6445 28.4456 15.3636 28.3082 16.0355 28.0353C16.7073 27.7625 17.3186 27.3596 17.8343 26.8497L28.9193 15.7047C29.0582 15.5649 29.2233 15.4538 29.4051 15.3777C29.5869 15.3016 29.7819 15.2621 29.979 15.2614C30.1761 15.2607 30.3714 15.2988 30.5538 15.3736C30.7361 15.4484 30.902 15.5584 31.0418 15.6972C31.1817 15.8361 31.2928 16.0012 31.3689 16.183C31.445 16.3648 31.4845 16.5598 31.4852 16.7569C31.4859 16.954 31.4477 17.1493 31.3729 17.3317C31.2982 17.514 31.1882 17.6799 31.0493 17.8197L19.9643 28.9647C19.1773 29.7657 18.2389 30.4023 17.2037 30.8374C16.1686 31.2726 15.0572 31.4978 13.9343 31.4997Z" fill="#BCBABE"/>
</g>
<defs>
<clipPath id="clip0_1343_931">
<rect width="36" height="36" fill="white"/>
</clipPath>
</defs>
</svg>
