<svg width="36" height="36" viewBox="0 0 36 36" fill="none" xmlns="http://www.w3.org/2000/svg">
<circle cx="18" cy="18" r="18" fill="#007BFF"/>
<g clip-path="url(#clip0_1400_848)">
<path d="M15.25 26.3747C14.9872 26.3752 14.7324 26.2837 14.53 26.1159C14.4161 26.0215 14.3219 25.9055 14.2529 25.7746C14.1839 25.6437 14.1414 25.5005 14.1278 25.3532C14.1142 25.2058 14.1298 25.0572 14.1738 24.9159C14.2177 24.7746 14.289 24.6434 14.3838 24.5297L19.4238 18.4997L14.5638 12.4584C14.4703 12.3434 14.4005 12.211 14.3584 12.0688C14.3163 11.9267 14.3027 11.7776 14.3184 11.6302C14.3341 11.4828 14.3787 11.34 14.4498 11.2099C14.5209 11.0798 14.617 10.965 14.7325 10.8722C14.8489 10.7698 14.9852 10.6925 15.1329 10.6453C15.2806 10.598 15.4364 10.5818 15.5906 10.5977C15.7449 10.6135 15.8942 10.6611 16.0291 10.7374C16.1641 10.8136 16.2819 10.917 16.375 11.0409L21.8088 17.7909C21.9742 17.9922 22.0647 18.2447 22.0647 18.5053C22.0647 18.7659 21.9742 19.0184 21.8088 19.2197L16.1838 25.9697C16.0709 26.1058 15.9276 26.2135 15.7653 26.2838C15.6031 26.3542 15.4265 26.3853 15.25 26.3747Z" fill="white"/>
</g>
<defs>
<clipPath id="clip0_1400_848">
<rect width="27" height="27" fill="white" transform="translate(4 5)"/>
</clipPath>
</defs>
</svg>
