<svg width="27" height="30" viewBox="0 0 27 30" fill="none" xmlns="http://www.w3.org/2000/svg">
<path d="M11.5875 0.725586H26.5006V4.53678H11.5875C7.76831 4.53678 4.63771 7.51576 4.63771 11.1495V18.8514C4.63771 22.4849 7.7685 25.4642 11.5875 25.4642H26.5006V29.2754H11.5875C5.55786 29.2754 0.632812 24.5885 0.632812 18.8519V11.15C0.632812 5.41303 5.55805 0.726554 11.5875 0.726554V0.725586ZM9.03956 13.0943C6.40503 13.0943 6.40503 16.9058 9.03956 16.9058H17.6811L15.4127 19.0637C13.5495 20.8359 16.3822 23.5312 18.2447 21.7586L23.9204 16.3579C24.6854 15.6304 24.749 14.4309 23.9204 13.6422L18.2447 8.24147C16.3822 6.46905 13.5495 9.16444 15.4127 10.9364L17.6811 13.0943H9.03956Z" fill="#007BFF"/>
</svg>
