<svg width="15" height="17" viewBox="0 0 15 17" fill="none" xmlns="http://www.w3.org/2000/svg">
<path d="M7.50002 17C7.84371 16.9982 8.17751 16.8009 8.44883 16.439C8.72034 16.0771 8.91415 15.5711 9 15H6C6.08588 15.5711 6.27967 16.0771 6.55117 16.439C6.82251 16.8009 7.15631 16.9982 7.49998 17H7.50002Z" fill="white"/>
<path d="M13.4623 10.063C13.1188 9.71932 12.9083 9.26491 12.8686 8.78051L12.6162 5.10256C12.479 3.23621 11.4032 1.56744 9.7602 0.671791C8.11715 -0.22393 6.13179 -0.22393 4.48874 0.671791C2.84569 1.56738 1.76999 3.23628 1.63269 5.10256L1.38328 8.79238C1.34431 9.2777 1.13386 9.73329 0.789566 10.0777C0.287152 10.5694 0.00278195 11.242 0 11.945C0.000795164 12.6286 0.273531 13.2838 0.758049 13.7662C1.24255 14.2484 1.89909 14.5181 2.58264 14.5157H11.6664C12.3499 14.5181 13.0065 14.2484 13.491 13.7662C13.9755 13.2838 14.2482 12.6286 14.249 11.945C14.2513 11.2372 13.9677 10.5585 13.4623 10.0629L13.4623 10.063Z" fill="white"/>
</svg>
