<svg width="47" height="47" viewBox="0 0 47 47" fill="none" xmlns="http://www.w3.org/2000/svg">
<g clip-path="url(#clip0_1411_821)">
<path d="M41.1243 14.0024C40.5293 13.7345 39.8687 13.6474 39.2246 13.7518C38.5805 13.8563 37.9813 14.1477 37.5014 14.5899L33.291 18.5066V15.667C33.291 14.1088 32.672 12.6145 31.5703 11.5127C30.4685 10.411 28.9742 9.79199 27.416 9.79199H9.79102C8.23287 9.79199 6.73854 10.411 5.63676 11.5127C4.53499 12.6145 3.91602 14.1088 3.91602 15.667V31.3337C3.91602 32.8918 4.53499 34.3861 5.63676 35.4879C6.73854 36.5897 8.23287 37.2087 9.79102 37.2087H27.416C28.9742 37.2087 30.4685 36.5897 31.5703 35.4879C32.672 34.3861 33.291 32.8918 33.291 31.3337V28.4941L37.521 32.4107C38.1437 32.9744 38.9527 33.2883 39.7927 33.292C40.2588 33.2909 40.7194 33.1908 41.1439 32.9982C41.7215 32.7646 42.2164 32.364 42.5652 31.8478C42.914 31.3315 43.101 30.723 43.1023 30.0999V16.9007C43.0994 16.2754 42.9096 15.6653 42.5571 15.1487C42.2046 14.6322 41.7056 14.233 41.1243 14.0024Z" fill="#007BFF"/>
<g clip-path="url(#clip1_1411_821)">
<path d="M22.875 29.7501C20.3233 29.7468 17.8771 28.7316 16.0728 26.9273C14.2684 25.123 13.2533 22.6768 13.25 20.1251C13.25 19.3626 13.5529 18.6313 14.0921 18.0921C14.6312 17.553 15.3625 17.2501 16.125 17.2501C16.2865 17.2488 16.4477 17.2635 16.6062 17.2938C16.7596 17.3165 16.9103 17.3542 17.0563 17.4063C17.1589 17.4423 17.2504 17.5045 17.3216 17.5867C17.3929 17.669 17.4414 17.7683 17.4625 17.8751L18.3187 21.6251C18.3418 21.7269 18.339 21.8328 18.3107 21.9332C18.2823 22.0337 18.2292 22.1254 18.1563 22.2001C18.075 22.2876 18.0687 22.2938 17.3 22.6938C17.9156 24.0444 18.9957 25.1289 20.3438 25.7501C20.75 24.9751 20.7562 24.9688 20.8437 24.8876C20.9184 24.8146 21.0101 24.7615 21.1106 24.7332C21.211 24.7048 21.317 24.702 21.4187 24.7251L25.1687 25.5813C25.2721 25.6053 25.3676 25.6552 25.4463 25.7262C25.525 25.7973 25.5844 25.8872 25.6188 25.9876C25.6715 26.1359 25.7112 26.2886 25.7375 26.4438C25.7627 26.6009 25.7752 26.7597 25.775 26.9188C25.7635 27.6781 25.4521 28.4019 24.9087 28.9324C24.3654 29.4628 23.6343 29.7568 22.875 29.7501Z" fill="white"/>
</g>
</g>
<defs>
<clipPath id="clip0_1411_821">
<rect width="47" height="47" fill="white"/>
</clipPath>
<clipPath id="clip1_1411_821">
<rect width="15" height="15" fill="white" transform="translate(12 16)"/>
</clipPath>
</defs>
</svg>
